<svg width="192" height="32" viewBox="0 0 192 32" fill="none" xmlns="http://www.w3.org/2000/svg">
<path d="M14.0171 5H40L25.9829 27H0L14.0171 5Z" fill="black"/>
<path d="M48.672 24.5L53.688 7.7H56.712L61.728 24.5H58.968L57.84 20.468H52.56L51.432 24.5H48.672ZM55.128 11.3L53.136 18.428H57.264L55.272 11.3H55.128ZM64.1906 24.5V7.7H69.6866C70.9986 7.7 72.0786 7.924 72.9266 8.372C73.7906 8.82 74.4306 9.428 74.8466 10.196C75.2786 10.948 75.4946 11.804 75.4946 12.764C75.4946 13.852 75.2146 14.82 74.6546 15.668C74.1106 16.5 73.2706 17.108 72.1346 17.492L75.6626 24.5H72.7106L69.4946 17.852H66.7346V24.5H64.1906ZM66.7346 15.548H69.5426C70.6946 15.548 71.5346 15.292 72.0626 14.78C72.6066 14.268 72.8786 13.596 72.8786 12.764C72.8786 11.916 72.6146 11.244 72.0866 10.748C71.5586 10.236 70.7026 9.98 69.5186 9.98H66.7346V15.548ZM77.7653 24.5V7.7H80.3092V14.66H87.6533V7.7H90.1973V24.5H87.6533V16.988H80.3092V24.5H77.7653ZM93.4519 24.5V22.244H97.0999V9.956H93.4999V7.7H103.244V9.956H99.6439V22.244H103.292V24.5H93.4519ZM111.491 24.5V9.98H106.979V7.7H118.547V9.98H114.035V24.5H111.491ZM121.873 24.5V7.7H132.601V9.98H124.417V14.876H131.881V17.132H124.417V22.22H132.601V24.5H121.873ZM136.168 24.5V7.7H138.712V15.38L144.664 7.7H147.808L141.232 16.028V16.172L147.952 24.5H144.736L138.712 16.964V24.5H136.168ZM154.662 24.5V9.98H150.15V7.7H161.718V9.98H157.206V24.5H154.662ZM170.277 24.788C169.141 24.788 168.125 24.556 167.229 24.092C166.349 23.628 165.653 22.924 165.141 21.98C164.629 21.02 164.373 19.812 164.373 18.356V7.7H166.917V18.5C166.917 19.78 167.221 20.772 167.829 21.476C168.437 22.164 169.269 22.508 170.325 22.508C171.381 22.508 172.213 22.164 172.821 21.476C173.429 20.772 173.733 19.78 173.733 18.5V7.7H176.277V18.356C176.277 19.812 176.013 21.02 175.485 21.98C174.957 22.924 174.237 23.628 173.325 24.092C172.429 24.556 171.413 24.788 170.277 24.788ZM172.629 6.068C172.197 6.068 171.837 5.916 171.549 5.612C171.261 5.308 171.117 4.956 171.117 4.556C171.117 4.14 171.261 3.788 171.549 3.5C171.837 3.196 172.197 3.044 172.629 3.044C173.045 3.044 173.389 3.196 173.661 3.5C173.949 3.788 174.093 4.14 174.093 4.556C174.093 4.956 173.949 5.308 173.661 5.612C173.389 5.916 173.045 6.068 172.629 6.068ZM168.045 6.068C167.629 6.068 167.277 5.916 166.989 5.612C166.701 5.308 166.557 4.956 166.557 4.556C166.557 4.14 166.701 3.788 166.989 3.5C167.277 3.196 167.629 3.044 168.045 3.044C168.461 3.044 168.813 3.196 169.101 3.5C169.389 3.788 169.533 4.14 169.533 4.556C169.533 4.956 169.389 5.308 169.101 5.612C168.813 5.916 168.461 6.068 168.045 6.068ZM179.316 24.5V7.7H184.812C186.124 7.7 187.204 7.924 188.052 8.372C188.916 8.82 189.556 9.428 189.972 10.196C190.404 10.948 190.62 11.804 190.62 12.764C190.62 13.852 190.34 14.82 189.78 15.668C189.236 16.5 188.396 17.108 187.26 17.492L190.788 24.5H187.836L184.62 17.852H181.86V24.5H179.316ZM181.86 15.548H184.668C185.82 15.548 186.66 15.292 187.188 14.78C187.732 14.268 188.004 13.596 188.004 12.764C188.004 11.916 187.74 11.244 187.212 10.748C186.684 10.236 185.828 9.98 184.644 9.98H181.86V15.548Z" fill="black"/>
</svg>
